<svg width="15" height="16" viewBox="0 0 15 16" fill="none" xmlns="http://www.w3.org/2000/svg">
<g id="Group 792">
<circle id="Ellipse 90" cx="7.5" cy="8" r="7.5" fill="#181A1F"/>
<path id="Vector" d="M5.3906 8.19048L4.44984 9.13997L3.5 8.19048L4.44949 7.24098L5.3906 8.19048ZM7.69048 5.8906L9.31079 7.51092L10.2606 6.56178L8.63159 4.94949L7.69048 4L6.74098 4.94949L5.12067 6.56981L6.06981 7.51965L7.69048 5.8906ZM10.9315 7.24098L9.98232 8.19048L10.9315 9.13997L11.881 8.19048L10.9315 7.24098ZM7.69048 10.482L6.06178 8.86165L5.12032 9.81079L6.74063 11.4311L7.69048 12.381L8.63997 11.4315L10.2523 9.81114L9.31114 8.8613L7.69048 10.4827V10.482ZM7.69048 9.13159L8.63997 8.18244L7.69048 7.24063L6.74098 8.19048L7.69048 9.13159Z" fill="#E7BA41"/>
</g>
</svg>
