<svg width="15" height="15" viewBox="0 0 15 15" fill="none" xmlns="http://www.w3.org/2000/svg">
<g id="Group 794">
<circle id="Ellipse 90" cx="7.5" cy="7.5" r="7.5" fill="#212121"/>
<g id="Group 828">
<path id="Vector" d="M5.65634 3.31238C5.76816 3.19287 5.92476 3.125 6.08874 3.125L7.1499 3.125C7.28389 3.125 7.35338 3.28425 7.26201 3.3819L5.16336 5.62498H6.32311L7.50238 6.87496H5.16336L7.50238 9.37494H6.08874C5.92476 9.37494 5.76816 9.30709 5.65634 9.18756L3.28379 6.65173C3.07207 6.42544 3.07207 6.0745 3.28379 5.84821L5.65634 3.31238Z" fill="#4DA0B1"/>
<path id="Vector_2" d="M8.91832 11.6876C8.8065 11.8071 8.64988 11.8749 8.4859 11.8749H7.42473C7.29075 11.8749 7.22126 11.7157 7.31263 11.618L9.41129 9.37497H8.25154L7.07227 8.12496H9.41129L7.07227 5.625H8.4859C8.64988 5.625 8.8065 5.69287 8.91832 5.81238L11.2908 8.34822C11.5026 8.57449 11.5026 8.92544 11.2908 9.15172L8.91832 11.6876Z" fill="#4DA0B1"/>
</g>
</g>
</svg>
